<?xml version="1.0" standalone="no"?>
<!DOCTYPE svg PUBLIC "-//W3C//DTD SVG 20010904//EN"
 "http://www.w3.org/TR/2001/REC-SVG-20010904/DTD/svg10.dtd">
<svg version="1.0" xmlns="http://www.w3.org/2000/svg"
 width="472.000000pt" height="472.000000pt" viewBox="0 0 472.000000 472.000000"
 preserveAspectRatio="xMidYMid meet">
<metadata>
Created by potrace 1.11, written by Peter Selinger 2001-2013
</metadata>
<g transform="translate(0.000000,472.000000) scale(0.100000,-0.100000)"
fill="#000000" stroke="none">
<path d="M1072 3334 c-435 -75 -762 -400 -834 -829 -17 -101 -14 -269 6 -360
17 -77 26 -108 51 -170 114 -283 332 -488 620 -584 123 -40 198 -50 350 -46
143 4 259 29 379 84 264 119 468 358 549 641 180 626 -286 1259 -938 1274 -60
2 -143 -3 -183 -10z m278 -171 c239 -34 453 -175 583 -384 44 -71 90 -177 102
-236 19 -96 23 -139 20 -228 -4 -110 -6 -123 -36 -221 -50 -162 -155 -309
-294 -415 -53 -40 -193 -117 -223 -122 -9 -2 -35 -9 -57 -15 -152 -42 -347
-35 -495 19 -293 107 -504 369 -545 674 -7 58 -8 178 0 218 3 15 7 38 9 52 23
128 103 289 196 391 191 210 462 308 740 267z"/>
<path d="M2498 3291 c-32 -32 -58 -62 -58 -66 0 -4 196 -203 435 -442 239
-240 435 -438 435 -440 0 -3 -197 -202 -438 -443 l-439 -439 62 -61 62 -62
440 441 441 440 440 -440 441 -440 63 60 63 61 -442 442 -441 441 439 440
c435 434 440 440 422 460 -32 37 -96 97 -104 97 -4 0 -204 -197 -444 -437
l-436 -436 -442 441 -442 441 -57 -58z"/>
</g>
</svg>
